<svg width="125" height="79" viewBox="0 0 213 105" fill="none" xmlns="http://www.w3.org/2000/svg">
<path d="M210.111 16.5153C202 6.49193 176.771 3.34375 148.583 15.4259C144.711 17.0405 140.949 18.8097 137.313 20.7264C133.665 9.19272 121.411 0.693512 106.907 0.693512C94.8723 0.693512 84.3969 6.54882 79.0842 15.1365C81.1649 16.2102 83.1622 17.3778 85.0657 18.6335C88.9658 11.3817 97.2864 6.36303 106.907 6.36303C119.079 6.36303 129.179 14.3971 130.861 24.8148C126.815 27.8746 123.67 31.4006 118.721 36.9476C117.934 37.8322 117.09 38.7675 116.195 39.7684C114.798 40.1344 113.459 40.6224 112.205 41.2231C109.791 42.3422 107.899 44.0266 106.801 46.0332C106.768 46.0964 106.736 46.152 106.711 46.2152C106.687 46.152 106.656 46.0964 106.623 46.0332C106.623 46.0332 106.623 46.0142 106.607 46.0079C105.745 44.549 104.492 43.2492 102.931 42.1951C101.37 41.141 99.5369 40.3568 97.5539 39.8948C97.2864 39.819 97.0107 39.7431 96.7253 39.6736C95.8559 38.7106 95.0517 37.8044 94.2883 36.9476C90.9108 32.8479 87.0946 28.9754 82.8799 25.3709C80.8788 23.8036 78.7067 22.3732 76.3879 21.0954C72.5435 19.0245 68.547 17.1285 64.4185 15.4171C36.2303 3.33491 11.0011 6.4831 2.89099 16.5065C-3.24381 24.0894 2.20918 35.1731 4.83372 39.5864C10.0339 48.3068 18.3055 55.3311 27.7874 59.1277C28.6087 57.3419 29.6971 55.6367 31.0302 54.0471C23.0261 50.818 15.9811 44.7732 11.4791 37.213C8.05362 31.4651 5.62973 23.7899 9.09106 19.5194C15.2895 11.8632 37.5711 10.3845 60.8837 20.375C66.0398 22.4061 70.9058 24.852 75.4011 27.6723C75.5071 27.7419 75.6115 27.8101 75.7094 27.8859C79.5279 30.5172 82.3319 33.5213 86.8828 38.6145C86.387 38.6145 85.8911 38.6209 85.3952 38.6335C82.8689 38.6994 80.3518 38.9034 77.8625 39.2439C72.7667 39.9466 67.7858 41.0803 63.0091 42.6247C56.6763 44.6047 50.7692 47.3197 45.4904 50.6765C43.7916 51.7805 42.1976 52.9779 40.7209 54.2594C39.9657 54.9204 39.2741 55.5814 38.6575 56.236C37.1352 57.7981 35.9396 59.5361 35.1146 61.3861C34.1896 63.3751 34.0343 65.53 34.6677 67.5864C34.807 68.0317 34.9914 68.4678 35.219 68.8907C38.129 74.3416 51.3414 79.3413 62.0826 79.3413C62.8786 79.3413 63.66 79.3097 64.4233 79.2528C68.1005 79.0717 71.6073 77.9866 74.4338 76.1551C76.0574 75.0475 77.3542 73.6819 78.236 72.1514C78.8745 74.7002 79.8215 77.1967 81.0645 79.6079C88.3199 93.7539 103.849 103.021 104.702 103.526L106.912 104.822L109.122 103.526C109.967 103.028 125.178 93.9498 132.524 80.0616C130.331 78.4038 128.589 76.4212 127.404 74.2316C126.836 75.7154 126.15 77.1703 125.349 78.588C113.107 79.754 100.727 79.754 88.4846 78.588C87.5157 76.8772 86.7168 75.1116 86.095 73.3065C85.2134 70.7848 84.7469 68.1868 84.7068 65.5744C86.0558 65.7387 87.444 65.8828 88.8582 66.0155C100.599 67.0437 112.45 67.0649 124.197 66.0787C123.625 64.9027 122.745 63.8312 121.613 62.9318C120.48 62.0324 119.119 61.3245 117.616 60.8528C114.144 61.036 110.546 61.1359 106.913 61.1359C103.054 61.1359 99.234 61.0234 95.5622 60.8149H95.5296C91.791 60.6013 88.2171 60.2803 84.9009 59.8645C84.9009 59.7141 84.9173 59.5687 84.9254 59.4234C89.0457 55.5965 94.3764 54.5577 98.6908 53.7134C102.217 53.0209 105.256 52.4294 106.662 50.2695C106.677 50.2379 106.701 50.2063 106.718 50.176C106.734 50.2063 106.758 50.2379 106.775 50.2695C107.987 52.1463 110.448 52.8389 113.381 53.443C113.828 53.5314 114.283 53.625 114.746 53.7134C115.21 53.8019 115.725 53.903 116.226 54.0092C119.629 54.5884 122.841 55.7072 125.659 57.2951C126.894 58.0378 128.001 58.9009 128.95 59.8632C130.511 61.4548 131.727 63.2326 132.55 65.127C132.575 65.1889 132.606 65.2534 132.639 65.3153C133.171 66.5302 133.6 67.7711 133.922 69.0297C134.235 70.2664 134.755 71.4661 135.469 72.5987C137.946 76.4572 142.62 78.7801 148.997 79.2528C149.761 79.3097 150.542 79.3413 151.338 79.3413C162.079 79.3413 175.292 74.3416 178.2 68.8907C179.429 66.4562 179.455 63.7562 178.274 61.3077C177.875 60.3999 177.372 59.5214 176.771 58.6828C176.161 57.8093 175.468 56.9717 174.7 56.1766C174.098 55.5447 173.431 54.8989 172.7 54.2632C166.466 49.1584 158.852 45.1852 150.404 42.6284C143.198 40.2183 135.485 38.8478 127.644 38.5842C127.155 38.5716 126.652 38.5716 126.164 38.5716C130.691 33.51 133.485 30.5185 137.289 27.8935C137.654 27.6408 138.028 27.388 138.41 27.1504C142.702 24.5788 147.288 22.3156 152.111 20.3889C175.416 10.3984 197.712 11.8771 203.904 19.5333C207.365 23.8076 204.937 31.4765 201.514 37.2269C197.014 44.787 189.969 50.8319 181.957 54.061C182.623 54.8567 183.23 55.6808 183.777 56.5292C184.326 57.3752 184.804 58.2478 185.208 59.1416C194.681 55.3501 202.961 48.3194 208.153 39.6003C210.792 35.182 216.245 24.0945 210.111 16.5153ZM106.907 85.1409C111.831 85.1409 116.625 84.9766 121.199 84.6493C117.23 89.4514 112.42 93.8034 106.907 97.5807C101.399 93.8013 96.5917 89.4496 92.6229 84.6493C97.1966 84.9741 101.982 85.1384 106.907 85.1384V85.1409ZM63.7187 73.6199C56.2267 74.1735 47.6957 71.1454 43.869 68.533C43.0759 68.0469 42.4295 67.4322 41.9753 66.7321C41.6736 66.0209 41.5591 65.2699 41.6387 64.5238C41.7183 63.7777 41.9902 63.0515 42.4385 62.3883C43.3868 60.791 44.6527 59.3188 46.1902 58.0256C46.7268 57.5592 47.2962 57.0929 47.8964 56.6354C49.4051 55.4911 51.0211 54.4351 52.7312 53.4758C56.7801 51.2057 61.1674 49.322 65.7984 47.8657C71.1395 46.1158 76.7763 44.9667 82.5374 44.4534C83.9407 44.3373 85.3509 44.2787 86.7621 44.2777C87.501 44.2777 88.2301 44.2967 88.9397 44.3346L89.2806 44.3536C92.4169 44.3826 95.4755 45.1129 98.0889 46.4566C98.3582 46.901 98.594 47.3572 98.7952 47.8228C98.1786 47.9605 97.4902 48.0995 96.903 48.212C91.8562 49.2003 83.7314 50.7877 77.9457 57.1713L77.807 57.1586C77.7972 57.2173 77.7918 57.2764 77.7907 57.3356C77.7907 57.3356 77.7907 57.3356 77.7907 57.3469C75.0793 60.5419 73.2305 64.129 72.3557 67.8923C71.4227 71.388 68.6024 73.2585 63.7187 73.6174V73.6199ZM147.624 47.8695C154.269 49.9009 160.358 52.8894 165.567 56.6771C166.152 57.1182 166.709 57.5719 167.224 58.0256C167.834 58.5602 168.387 59.0821 168.875 59.6054C169.706 60.4601 170.409 61.3852 170.971 62.363C171.424 63.0295 171.699 63.7598 171.78 64.5104C171.861 65.261 171.746 66.0166 171.442 66.7321C170.004 69.4266 159.045 74.315 149.689 73.6199C144.807 73.261 141.987 71.3905 141.077 67.9024C140.498 65.6051 139.599 63.3634 138.395 61.2168C138.395 61.2168 138.395 61.2041 138.395 61.1978C138.395 61.1915 138.395 61.1978 138.395 61.1852C137.89 60.3016 137.317 59.4419 136.681 58.6108C130.87 51.0278 121.941 49.2799 116.537 48.2221C116.374 48.1905 116.211 48.1539 116.025 48.1223L115.107 47.9327C114.684 47.8442 114.278 47.757 113.921 47.6686C114.137 47.4005 114.391 47.1513 114.676 46.9254C114.768 46.8474 114.866 46.774 114.97 46.7055C116.927 45.3267 120.413 44.4635 124.92 44.2942C132.73 44.2162 140.472 45.4344 147.624 47.867V47.8695Z" fill="#FBBD00"/>
</svg>
